<svg version="1.1" fill = "#575657" xmlns="http://www.w3.org/2000/svg" height = "25px" width = "25px" viewBox="141.6 251 23.4 19.9"><g xmlns="http://www.w3.org/2000/svg" id="iamexpat-icons-sprite"> <path xmlns="http://www.w3.org/2000/svg" class="st7" d="M164.1,258.5c0.2-0.2,0.3-0.4,0.3-0.6v-0.7c0-0.4-0.3-0.8-0.8-0.9v-2.7c0-0.7-0.3-1.4-0.8-1.8   c-0.5-0.5-1.1-0.8-1.8-0.8h-15c-1.4,0-2.6,1.2-2.6,2.6v2.7c-0.4,0-0.8,0.4-0.8,0.9v0.7c0,0.2,0.1,0.5,0.3,0.6l-0.9,4.2   c-0.2,0.3-0.4,0.7-0.4,1.1v5c0,0.4,0.3,0.7,0.7,0.7l0,0h0.4v1c0,0.2,0.2,0.4,0.4,0.4h2.7c0.2,0,0.4-0.2,0.4-0.4v-1h14.2v1   c0,0.2,0.2,0.4,0.4,0.4h2.7c0.2,0,0.4-0.2,0.4-0.4v-1h0.4c0.4,0,0.7-0.3,0.7-0.7v-5c0-0.4-0.1-0.8-0.3-1.1L164.1,258.5z M144,253.6   c0-1.1,0.9-2,2-2h14.9c1.1,0,2,0.9,2,2v2.7H162v-1.5c0-0.8-0.7-1.5-1.5-1.5l0,0h-5.4c-0.8,0-1.5,0.7-1.5,1.5l0,0v1.5H153v-1.5   c0-0.8-0.7-1.5-1.5-1.5l0,0h-5.4c-0.8,0-1.5,0.7-1.5,1.5l0,0v1.5H144V253.6z M161.5,254.8v1.5h-7.1v-1.5c0-0.5,0.4-0.9,0.9-0.9h5.4   C161.1,253.9,161.5,254.3,161.5,254.8L161.5,254.8z M152.6,254.8v1.5h-7.1v-1.5c0-0.5,0.4-0.9,0.9-0.9h5.4   C152.2,253.9,152.6,254.3,152.6,254.8L152.6,254.8z M143.2,257.2c0-0.2,0.1-0.3,0.3-0.3l0,0h20c0.1,0,0.3,0.1,0.3,0.3l0,0v0.7   c0,0.2-0.1,0.3-0.3,0.3l0,0h-20c-0.2,0-0.3-0.1-0.3-0.3l0,0V257.2z M143.4,258.8h20.1l0.7,3.3c-0.3-0.2-0.7-0.2-1-0.2h-19.7   c-0.3,0-0.7,0.1-0.9,0.2L143.4,258.8z M145.8,270.4h-2.4v-0.9h2.4V270.4z M163.6,270.4h-2.4v-0.9h2.4V270.4z M164.8,268.8   c0,0.1-0.1,0.1-0.1,0.1h-22.3c-0.1,0-0.1-0.1-0.1-0.1v-5c0-0.8,0.7-1.4,1.4-1.4h19.7c0.5,0,0.9,0.2,1.2,0.6l0,0l0,0   c0.2,0.2,0.2,0.5,0.2,0.8L164.8,268.8z"/>   </g></svg>