<svg xmlns="http://www.w3.org/2000/svg" fill = "#575657" height = "25px" width = "25px" viewBox="74.2 251 20.22 20"><path d="M93.9 252.7h-3.6v-1.4c0-.2-.1-.3-.3-.3s-.3.1-.3.3v1.4H79v-1.4c0-.2-.1-.3-.3-.3s-.3.1-.3.3v1.4h-3.6a.65.65 0 0 0-.6.6v17.1a.65.65 0 0 0 .6.6h19a.65.65 0 0 0 .6-.6v-17.1c.1-.4-.2-.6-.5-.6h0zm.1 17.7s0 .1 0 0l-19.1.1s-.1 0-.1-.1v-13.3H94v13.3zm0-13.9H74.8v-3.3s0-.1.1-.1h3.6v1.2c0 .2.1.3.3.3s.3-.1.3-.3v-1.2h10.7v1.2c0 .2.1.3.3.3s.3-.1.3-.3v-1.2H94h.1 0l-.1 3.4zm-10.6 4.9h1.9a.65.65 0 0 0 .6-.6v-1.4a.65.65 0 0 0-.6-.6h-1.9a.65.65 0 0 0-.6.6v1.4c0 .4.3.6.6.6zm0-2h0 2 .1v1.4s0 .1-.1 0h-1.9-.1v-1.4zm4.4 2h1.9a.65.65 0 0 0 .6-.6v-1.4a.65.65 0 0 0-.6-.6h-1.9a.65.65 0 0 0-.6.6v1.4c0 .4.2.6.6.6zm-.1-2h0 2 .1v1.4h-.1-1.9-.1v-1.4zm-8.6 5.7H81a.65.65 0 0 0 .6-.6v-1.4a.65.65 0 0 0-.6-.6h0-1.9a.65.65 0 0 0-.6.6v1.4a.65.65 0 0 0 .6.6zm-.1-2h0l2-.1s.1 0 .1.1v1.4s0 .1-.1.1h-1.9s-.1 0-.1-.1v-1.4zm4.4 2h1.9a.65.65 0 0 0 .6-.6v-1.4a.65.65 0 0 0-.6-.6h0-1.9a.65.65 0 0 0-.6.6v1.4a.65.65 0 0 0 .6.6zm0-2h0l2-.1s.1 0 .1.1v1.4s0 .1-.1.1h-1.9s-.1 0-.1-.1v-1.4zm4.4 2h1.9a.65.65 0 0 0 .6-.6v-1.4a.65.65 0 0 0-.6-.6h0-1.9a.65.65 0 0 0-.6.6v1.4c0 .3.2.6.6.6zm-.1-2h0l2-.1h.1 0v1.4s0 .1-.1.1h-1.9s-.1 0-.1-.1v-1.3zm-8.6 5.7H81a.65.65 0 0 0 .6-.6v-1.4a.65.65 0 0 0-.6-.6h-1.9a.65.65 0 0 0-.6.6v1.4a.65.65 0 0 0 .6.6zm-.1-2h0 2 .1v1.4s0 .1-.1 0h-1.9-.1v-1.4zm4.4 2h1.9a.65.65 0 0 0 .6-.6v-1.4a.65.65 0 0 0-.6-.6h-1.9a.65.65 0 0 0-.6.6v1.4a.65.65 0 0 0 .6.6zm0-2h0 2 .1v1.4s0 .1-.1 0h-1.9-.1v-1.4zm4.4 2h1.9a.65.65 0 0 0 .6-.6v-1.4a.65.65 0 0 0-.6-.6h-1.9a.65.65 0 0 0-.6.6v1.4c0 .3.2.6.6.6zm-.1-2h0 2 .1v1.4h-.1-1.9-.1v-1.4z"></path></svg>