<svg xmlns="http://www.w3.org/2000/svg" width="20" height="20" fill="currentColor" viewBox="0 0 20 20" aria-hidden="true"><path fill-rule="evenodd" d="M.125 6.522c0-2.962 2.367-5.385 5.313-5.385 1.944 0 3.636 1.056 4.562 2.626.926-1.57 2.618-2.626 4.563-2.626 2.945 0 5.312 2.423 5.312 5.385 0 3.512-1.657 6.084-3.651 8.007-1.55 1.493-3.359 2.64-4.769 3.536-.38.24-.73.463-1.039.669a.75.75 0 01-.832 0c-.314-.21-.671-.436-1.058-.68-1.407-.891-3.208-2.031-4.75-3.514C1.782 12.62.126 10.048.126 6.522zm9.125 0c0-2.156-1.718-3.885-3.813-3.885-2.094 0-3.812 1.729-3.812 3.885 0 2.993 1.386 5.2 3.192 6.937 1.42 1.366 3.04 2.393 4.436 3.278.258.163.507.321.747.476.232-.15.474-.304.723-.462 1.4-.89 3.033-1.927 4.46-3.302 1.807-1.742 3.192-3.95 3.192-6.927 0-2.156-1.718-3.885-3.813-3.885-2.094 0-3.812 1.729-3.812 3.885a.75.75 0 01-1.5 0z" clip-rule="evenodd"></path></svg>