<svg version="1.1" fill = "#575657"  height = "25px" width = "25px" xmlns="http://www.w3.org/2000/svg" viewBox="250.8 251 18.6 20"><g xmlns="http://www.w3.org/2000/svg" id="iamexpat-icons-sprite">     <path class="st7" d="M268.3,251h-16.4c-0.6,0-1.1,0.6-1.1,1.2v17.6c0,0.6,0.5,1.2,1.1,1.2h16.4c0.6,0,1.1-0.6,1.1-1.2v-17.5 		C269.4,251.6,269,251,268.3,251L268.3,251z M259.8,270.4h-7.9c-0.3,0-0.5-0.3-0.5-0.6v-6.2h8.4V270.4z M268.8,269.8 		c0,0.3-0.2,0.6-0.5,0.6h-7.9v-6.9h8.4V269.8z M268.8,263h-17.4v-3.4h17.4V263z M268.8,259h-17.4v-3.4h17.4V259z M268.8,255h-17.4 		v-2.8c0-0.3,0.2-0.6,0.5-0.6h16.4c0.3,0.1,0.5,0.3,0.5,0.6V255z"></path>     <path class="st7" d="M257.1,261.6c0.3,0,0.6-0.3,0.6-0.6c0-0.3-0.3-0.6-0.6-0.6c-0.3,0-0.6,0.3-0.6,0.6 		C256.5,261.4,256.8,261.6,257.1,261.6L257.1,261.6z"></path>     <path class="st7" d="M263.1,261.6c0.3,0,0.6-0.3,0.6-0.6s-0.3-0.6-0.6-0.6c-0.3,0-0.6,0.3-0.6,0.6l0,0 		C262.5,261.4,262.7,261.6,263.1,261.6z"></path></g>         </svg>