<svg xmlns="http://www.w3.org/2000/svg" width="20" height="20" fill="black" viewBox="0 0 20 20">
<path d="M15.776 12.983l-.019-.02c-.196-.203-.348-.235-.442-.235-.095 0-.26.033-.48.252l-.002.002-1.422 1.412a1.5 1.5 0 01-1.766.257 10.161 10.161 0 00-.188-.098c-.038-.02-.08-.04-.128-.066l-.016-.007c-.144-.072-.35-.175-.54-.292l-.013-.008c-1.488-.94-2.816-2.153-4.063-3.679l-.013-.016c-.615-.774-1.068-1.475-1.407-2.221a1.5 1.5 0 01.356-1.73c.303-.276.588-.563.895-.873l.093-.095.009-.008.179-.18.007-.008.191-.192c.239-.238.267-.41.267-.487 0-.077-.028-.25-.267-.488L5.777 2.98l-.024-.024c-.127-.127-.276-.275-.418-.427a19.703 19.703 0 00-.816-.802c-.192-.19-.348-.227-.455-.227-.109 0-.276.04-.482.232L2.053 3.267a1.773 1.773 0 00-.54 1.149c-.078.964.208 1.923.487 2.672.659 1.77 1.651 3.439 3.187 5.277a19.665 19.665 0 006.548 5.107c.995.47 2.158.94 3.4 1.021.089.005.151.007.198.007.627 0 1.09-.202 1.473-.605.284-.338.581-.624.828-.861l.061-.059.007-.007c.186-.176.365-.35.536-.53l.004-.002c.22-.228.258-.405.258-.508 0-.099-.035-.262-.246-.47l-.007-.006-2.47-2.469zm2.154 5.906c-.684.74-1.557 1.111-2.597 1.111-.09 0-.189-.004-.283-.009-1.544-.098-2.926-.676-3.96-1.165a21.164 21.164 0 01-7.053-5.497C2.413 11.384 1.324 9.569.595 7.612.298 6.815-.09 5.596.018 4.288c.073-.811.401-1.51.977-2.084L2.535.658c.45-.43.98-.658 1.53-.658.548 0 1.07.228 1.507.658.293.27.576.556.846.834.129.137.266.273.399.406L8.065 3.14c.945.94.945 2.16 0 3.1l-.183.185-.195.196-.095.096c-.303.306-.615.622-.949.925.275.605.653 1.201 1.215 1.909 1.161 1.42 2.372 2.518 3.704 3.36.129.08.28.155.44.235l.005.003.114.058.233.121 1.422-1.411c.455-.453.986-.69 1.54-.69.557 0 1.084.242 1.52.694l2.471 2.469c.455.448.693.981.693 1.537 0 .55-.234 1.088-.68 1.55-.193.201-.391.394-.584.578l-.053.05c-.264.254-.517.497-.753.783z">
</path>
</svg>
