<svg xmlns="http://www.w3.org/2000/svg" height = "25px" width = "25px" fill = "#575657" viewBox="181.3 251 20.13 20"><path d="M201.1 257.6c-.2 0-.3.1-.3.3h0v2.9h-2.3c-.2 0-.3.1-.3.3s.1.3.3.3h2.3v8.1c0 .4-.3.8-.8.8h0-9.5V262c0-.4.3-.8.8-.8h0 2.9c.2 0 .3-.1.3-.3h0c0-.2-.1-.3-.3-.3h0-2.9c-.8 0-1.4.6-1.4 1.4v4.3H185c-.2 0-.3.1-.3.3h0c0 .2.1.3.3.3h0 4.8v3.4h-7.1c-.4 0-.8-.3-.8-.8h0v-11.4h7.4c.2 0 .3-.1.3-.3s-.1-.3-.3-.3h0-7.3v-5.1c0-.4.3-.8.8-.8h0 6.5v3.1c0 .2.1.3.3.3h0c.2 0 .3-.1.3-.3h0v-3.1h5 .1.1 4.9c.4 0 .8.3.8.8v1c0 .2.1.3.3.3s.3-.1.3-.3v-1c0-.8-.6-1.4-1.4-1.4h0-5-.1-.1-12.1c-.8 0-1.4.6-1.4 1.4v17.2c0 .8.6 1.4 1.4 1.4H200c.8 0 1.4-.6 1.4-1.4V258c.1-.2-.1-.3-.3-.4h0z"></path></svg>